<svg height="100%" version="1.1" width="100%" xmlns="http://www.w3.org/2000/svg" preserveAspectRatio="xMidYMid meet" viewBox="0 0 600 442" xmlns:xlink="http://www.w3.org/1999/xlink"><desc>Created with Snap</desc><defs/><g id="root" contentwidth="240.5" contentheight="255.39999999999998">
          <rect class="background" height="2000%" width="2000%" y="-1000%" x="-1000%" style="" fill="#ffffff"/>
          <rect class="watermarklayer" height="100%" width="100%" y="0" x="0" style="" fill="none"/>
          <g class="content" id="content" transform="matrix(1,0,0,1,-8.45,-1.7)">
            <g class="icon">
            <svg height="76" version="1.1" width="136" xmlns="http://www.w3.org/2000/svg" x="241" y="171" preserveAspectRatio="none" transform="matrix(1,0,0,1,0,0)" class="none"><desc>Created with Snap</desc><defs/><svg xmlns="http://www.w3.org/2000/svg" viewBox="241 171 136 76"><defs><linearGradient x1="100%" y1="50%" x2="0%" y2="50%" id="prefix-MGr-linearGradient-1"><stop stop-color="#B4A9E9" offset="0%"/><stop stop-color="#946BDD" offset="100%"/></linearGradient><linearGradient x1="100%" y1="50%" x2="0%" y2="50%" id="prefix-MGr-linearGradient-2"><stop stop-color="#8E65DA" offset="0%"/><stop stop-color="#9F7FE1" offset="100%"/></linearGradient><linearGradient x1="100%" y1="50%" x2="0%" y2="50%" id="prefix-MGr-linearGradient-3"><stop stop-color="#7041D0" offset="0%"/><stop stop-color="#926ADC" offset="100%"/></linearGradient><linearGradient x1="100%" y1="50%" x2="9%" y2="50%" id="prefix-MGr-linearGradient-4"><stop stop-color="#CE8CEC" offset="0%"/><stop stop-color="#D89FF0" offset="100%"/></linearGradient><linearGradient x1="34%" y1="54%" x2="86%" y2="90%" id="prefix-MGr-linearGradient-5"><stop stop-color="#B18AE6" offset="0%"/><stop stop-color="#C5A0EA" offset="100%"/></linearGradient><linearGradient x1="12%" y1="50%" x2="86%" y2="75%" id="prefix-MGr-linearGradient-6"><stop stop-color="#B289E6" offset="0%"/><stop stop-color="#954FD9" offset="100%"/></linearGradient><linearGradient x1="0%" y1="39%" x2="86%" y2="75%" id="prefix-MGr-linearGradient-7"><stop stop-color="#B389E5" offset="0%"/><stop stop-color="#8741D4" offset="100%"/></linearGradient></defs><path d="M369.381 189.923c7.944 5.553 9.886 16.499 4.338 24.449-14.152 20.277-37.302 32.628-62.5 32.628-31.699 0-58.876-19.37-70.358-46.929l.142.125-.041-.101c19.147 16.347 55.102 16.217 61.075 10.76a41.174 41.174 0 0 0 9.181 1.03c13.477 0 25.827-6.518 33.502-17.293l.231-.328c5.549-7.95 16.487-9.893 24.43-4.34Zm-99.267-19.174a41.42 41.42 0 0 0 .519 6.557l-.084-.041a41.551 41.551 0 0 1-.435-6.27v-.246Z" id="prefix-MGr-形状结合" fill="url(#prefix-MGr-linearGradient-1)" fill-rule="nonzero"/></svg></svg><svg height="23" version="1.1" width="62" xmlns="http://www.w3.org/2000/svg" x="241" y="200" preserveAspectRatio="none" transform="matrix(1,0,0,1,0,0)" class="none"><desc>Created with Snap</desc><defs/><svg xmlns="http://www.w3.org/2000/svg" viewBox="241 200 62 23"><defs><linearGradient x1="100%" y1="50%" x2="0%" y2="50%" id="prefix-qtQ-linearGradient-1"><stop stop-color="#B4A9E9" offset="0%"/><stop stop-color="#946BDD" offset="100%"/></linearGradient><linearGradient x1="100%" y1="50%" x2="0%" y2="50%" id="prefix-qtQ-linearGradient-2"><stop stop-color="#8E65DA" offset="0%"/><stop stop-color="#9F7FE1" offset="100%"/></linearGradient><linearGradient x1="100%" y1="50%" x2="0%" y2="50%" id="prefix-qtQ-linearGradient-3"><stop stop-color="#7041D0" offset="0%"/><stop stop-color="#926ADC" offset="100%"/></linearGradient><linearGradient x1="100%" y1="50%" x2="9%" y2="50%" id="prefix-qtQ-linearGradient-4"><stop stop-color="#CE8CEC" offset="0%"/><stop stop-color="#D89FF0" offset="100%"/></linearGradient><linearGradient x1="34%" y1="54%" x2="86%" y2="90%" id="prefix-qtQ-linearGradient-5"><stop stop-color="#B18AE6" offset="0%"/><stop stop-color="#C5A0EA" offset="100%"/></linearGradient><linearGradient x1="12%" y1="50%" x2="86%" y2="75%" id="prefix-qtQ-linearGradient-6"><stop stop-color="#B289E6" offset="0%"/><stop stop-color="#954FD9" offset="100%"/></linearGradient><linearGradient x1="0%" y1="39%" x2="86%" y2="75%" id="prefix-qtQ-linearGradient-7"><stop stop-color="#B389E5" offset="0%"/><stop stop-color="#8741D4" offset="100%"/></linearGradient></defs><path d="m240.861 200.071.142.125-.041-.101c19.147 16.347 55.102 16.217 61.075 10.76a40.8 40.8 0 0 1 .626.137c-6.481 6.788-30.831 13.826-46.71 11.907l-.365-.046a76.328 76.328 0 0 1-14.727-22.782Z" id="prefix-qtQ-形状结合" fill="url(#prefix-qtQ-linearGradient-2)" fill-rule="nonzero"/></svg></svg><svg height="18" version="1.1" width="62" xmlns="http://www.w3.org/2000/svg" x="241" y="200" preserveAspectRatio="none" transform="matrix(1,0,0,1,0,0)" class="none"><desc>Created with Snap</desc><defs/><svg xmlns="http://www.w3.org/2000/svg" viewBox="241 200 62 18"><defs><linearGradient x1="100%" y1="50%" x2="0%" y2="50%" id="prefix-Pg3-linearGradient-1"><stop stop-color="#B4A9E9" offset="0%"/><stop stop-color="#946BDD" offset="100%"/></linearGradient><linearGradient x1="100%" y1="50%" x2="0%" y2="50%" id="prefix-Pg3-linearGradient-2"><stop stop-color="#8E65DA" offset="0%"/><stop stop-color="#9F7FE1" offset="100%"/></linearGradient><linearGradient x1="100%" y1="50%" x2="0%" y2="50%" id="prefix-Pg3-linearGradient-3"><stop stop-color="#7041D0" offset="0%"/><stop stop-color="#926ADC" offset="100%"/></linearGradient><linearGradient x1="100%" y1="50%" x2="9%" y2="50%" id="prefix-Pg3-linearGradient-4"><stop stop-color="#CE8CEC" offset="0%"/><stop stop-color="#D89FF0" offset="100%"/></linearGradient><linearGradient x1="34%" y1="54%" x2="86%" y2="90%" id="prefix-Pg3-linearGradient-5"><stop stop-color="#B18AE6" offset="0%"/><stop stop-color="#C5A0EA" offset="100%"/></linearGradient><linearGradient x1="12%" y1="50%" x2="86%" y2="75%" id="prefix-Pg3-linearGradient-6"><stop stop-color="#B289E6" offset="0%"/><stop stop-color="#954FD9" offset="100%"/></linearGradient><linearGradient x1="0%" y1="39%" x2="86%" y2="75%" id="prefix-Pg3-linearGradient-7"><stop stop-color="#B389E5" offset="0%"/><stop stop-color="#8741D4" offset="100%"/></linearGradient></defs><path d="m240.861 200.071.142.125-.041-.101c19.147 16.347 55.102 16.217 61.075 10.76a40.8 40.8 0 0 1 .573.126c-10.195 5.198-19.378 7.454-27.546 6.768-11.06-.928-21.095-4.275-29.45-8.196a76.048 76.048 0 0 1-4.753-9.482Z" id="prefix-Pg3-形状结合" fill="url(#prefix-Pg3-linearGradient-3)" fill-rule="nonzero"/></svg></svg><svg height="82" version="1.1" width="154" xmlns="http://www.w3.org/2000/svg" x="223" y="95" preserveAspectRatio="none" transform="matrix(1,0,0,1,0,0)" class="none"><desc>Created with Snap</desc><defs/><svg xmlns="http://www.w3.org/2000/svg" viewBox="223 95 154 82"><defs><linearGradient x1="100%" y1="50%" x2="0%" y2="50%" id="prefix-tDi-linearGradient-1"><stop stop-color="#B4A9E9" offset="0%"/><stop stop-color="#946BDD" offset="100%"/></linearGradient><linearGradient x1="100%" y1="50%" x2="0%" y2="50%" id="prefix-tDi-linearGradient-2"><stop stop-color="#8E65DA" offset="0%"/><stop stop-color="#9F7FE1" offset="100%"/></linearGradient><linearGradient x1="100%" y1="50%" x2="0%" y2="50%" id="prefix-tDi-linearGradient-3"><stop stop-color="#7041D0" offset="0%"/><stop stop-color="#926ADC" offset="100%"/></linearGradient><linearGradient x1="100%" y1="50%" x2="9%" y2="50%" id="prefix-tDi-linearGradient-4"><stop stop-color="#CE8CEC" offset="0%"/><stop stop-color="#D89FF0" offset="100%"/></linearGradient><linearGradient x1="34%" y1="54%" x2="86%" y2="90%" id="prefix-tDi-linearGradient-5"><stop stop-color="#B18AE6" offset="0%"/><stop stop-color="#C5A0EA" offset="100%"/></linearGradient><linearGradient x1="12%" y1="50%" x2="86%" y2="75%" id="prefix-tDi-linearGradient-6"><stop stop-color="#B289E6" offset="0%"/><stop stop-color="#954FD9" offset="100%"/></linearGradient><linearGradient x1="0%" y1="39%" x2="86%" y2="75%" id="prefix-tDi-linearGradient-7"><stop stop-color="#B389E5" offset="0%"/><stop stop-color="#8741D4" offset="100%"/></linearGradient></defs><path d="M311.219 95c25.293 0 48.52 12.445 62.654 32.85 5.52 7.969 3.54 18.908-4.424 24.432a17.454 17.454 0 0 1-9.544 3.124l-.33.005c-5.506.034-10.934-2.522-14.373-7.318l-.168-.238c-7.547-10.895-19.828-17.565-33.284-17.736l-.531-.003c-.438 0-.875.006-1.31.02l-.097.003-.09.003h-.008l-.013.001.005-.001-.066.003-.284.012.163-.007-.17.007a41.546 41.546 0 0 0-.894.05l-.356.025-.159.012-.636.056c-.249.023-.497.049-.744.077l-.295.034-.234.029-.105.013-.016.002.014-.002-.014.002-.146.019.131-.017-.233.031-.015.002-.273.038.22-.03-.315.044-.104.015-.107.016-.22.033-.065.01-.045.007-.012.002-.038.007-.264.042.266-.043-.262.043-.307.052.21-.036-.212.037-.282.049.237-.041-.259.045-.005.001-.033.007-.122.022-.13.025-.233.044.182-.035-.716.144c-.24.05-.48.102-.718.157l-.224.051-.086.02-.15.036-.082.02-.247.061.17-.042-.316.079-.17.044.292-.075-.397.101-.088.023.05-.012-.062.015-.14.037-.03.008-.048.014-.092.024-.073.02-.037.01-.034.009-.039.011-.052.015-.087.024-.15.043-.209.06.207-.06-.257.075-.289.085-.047.014-.24.073-.284.09-.553.178-.028.009-.117.04-.089.029-.048.017-.239.081.231-.079-.296.103-.047.015-.216.077-.16.057.104-.038-.224.082-.246.09.24-.088c-.218.08-.435.161-.652.244l.412-.155c-.185.069-.37.139-.554.21l-.429.169-.022.01-.08.031-.076.031-.024.01-.126.052-.206.086.101-.043-.163.068.015-.006-.052.022-.565.243c-.2.088-.4.177-.597.268l-.125.057-.08.037-.043.02-.138.065.098-.046-.215.102-.071.034-.276.132-.186.091.185-.091-.186.092-.1.049.013-.006c-.176.087-.35.175-.525.265l.334-.17c-.189.095-.377.191-.564.289l-.003.001-.617.329a41.025 41.025 0 0 0-1.655.95l.104-.063-.154.093-.004.003-.094.057-.097.06-.244.151.082-.052-.136.086-.139.087-.08.05-.16.103-.1.065-.01.006-.016.01-.117.076-.106.07-.054.036c-.37.243-.735.492-1.096.747l-.538.387-.19.139-.352.263-.178.135-.157.121.108-.082-.109.083-.137.106-.387.306c-9.443 7.537-15.494 19.15-15.494 32.177 0 2.043.148 4.052.436 6.015-12.435-6.185-21.606-11.169-27.512-14.953-2-1.282-4.04-2.79-6.12-4.525l-.695-.587-.01.06c-3.96-3.445-8.064-7.703-12.31-12.772l-.639-.766c13.37-5.893 22.546-12.222 27.53-18.986.113-.153.23-.296.349-.43l.177-.191.01-.01-.005.006a76.575 76.575 0 0 1 .705-.883l.426-.52a50.771 50.771 0 0 1 .828-.986l.116-.136a85.925 85.925 0 0 1 1.471-1.664l.129-.141a78.313 78.313 0 0 1 3.105-3.203l.07-.067a76.93 76.93 0 0 1 .659-.632l.316-.298a82.286 82.286 0 0 1 1.689-1.537 81.204 81.204 0 0 1 2.482-2.099 57.272 57.272 0 0 1 .948-.755 61.892 61.892 0 0 1 1.115-.858 78.955 78.955 0 0 1 .904-.671 76.44 76.44 0 0 1 6.658-4.36l.21-.121a76.54 76.54 0 0 1 3.018-1.655l.029-.015a75.387 75.387 0 0 1 2.1-1.048l.067-.033a75.9 75.9 0 0 1 11.08-4.273 75.505 75.505 0 0 1 10.535-2.334l.182-.027a76.164 76.164 0 0 1 3.512-.427l.1-.01a76.535 76.535 0 0 1 7.44-.359Z" id="prefix-tDi-形状结合" fill="url(#prefix-tDi-linearGradient-4)" fill-rule="nonzero"/></svg></svg><svg height="70" version="1.1" width="79" xmlns="http://www.w3.org/2000/svg" x="223" y="144" preserveAspectRatio="none" transform="matrix(1,0,0,1,0,0)" class="none"><desc>Created with Snap</desc><defs/><svg xmlns="http://www.w3.org/2000/svg" viewBox="223 144 79 70"><defs><linearGradient x1="100%" y1="50%" x2="0%" y2="50%" id="prefix-KsA-linearGradient-1"><stop stop-color="#B4A9E9" offset="0%"/><stop stop-color="#946BDD" offset="100%"/></linearGradient><linearGradient x1="100%" y1="50%" x2="0%" y2="50%" id="prefix-KsA-linearGradient-2"><stop stop-color="#8E65DA" offset="0%"/><stop stop-color="#9F7FE1" offset="100%"/></linearGradient><linearGradient x1="100%" y1="50%" x2="0%" y2="50%" id="prefix-KsA-linearGradient-3"><stop stop-color="#7041D0" offset="0%"/><stop stop-color="#926ADC" offset="100%"/></linearGradient><linearGradient x1="100%" y1="50%" x2="9%" y2="50%" id="prefix-KsA-linearGradient-4"><stop stop-color="#CE8CEC" offset="0%"/><stop stop-color="#D89FF0" offset="100%"/></linearGradient><linearGradient x1="34%" y1="54%" x2="86%" y2="90%" id="prefix-KsA-linearGradient-5"><stop stop-color="#B18AE6" offset="0%"/><stop stop-color="#C5A0EA" offset="100%"/></linearGradient><linearGradient x1="12%" y1="50%" x2="86%" y2="75%" id="prefix-KsA-linearGradient-6"><stop stop-color="#B289E6" offset="0%"/><stop stop-color="#954FD9" offset="100%"/></linearGradient><linearGradient x1="0%" y1="39%" x2="86%" y2="75%" id="prefix-KsA-linearGradient-7"><stop stop-color="#B389E5" offset="0%"/><stop stop-color="#8741D4" offset="100%"/></linearGradient></defs><path d="M223.264 143.723c4.474 5.407 8.79 9.92 12.95 13.539l.01-.061c2.32 1.984 4.592 3.688 6.814 5.112 5.92 3.793 15.118 8.79 27.595 14.993 2.654 16.58 15.208 29.85 31.404 33.548-5.973 5.458-41.928 5.588-61.075-10.759l.041.101a38.293 38.293 0 0 1-1.492-1.382c-12.4-12.128-17.815-30.492-16.247-55.091Z" id="prefix-KsA-蒙版" fill="url(#prefix-KsA-linearGradient-5)" fill-rule="nonzero"/></svg></svg><svg height="33" version="1.1" width="47" xmlns="http://www.w3.org/2000/svg" x="223" y="144" preserveAspectRatio="none" transform="matrix(1,0,0,1,0,0)" class="none"><desc>Created with Snap</desc><defs/><svg xmlns="http://www.w3.org/2000/svg" viewBox="223 144 47 33"><defs><linearGradient x1="100%" y1="50%" x2="0%" y2="50%" id="prefix-7kU-linearGradient-1"><stop stop-color="#B4A9E9" offset="0%"/><stop stop-color="#946BDD" offset="100%"/></linearGradient><linearGradient x1="100%" y1="50%" x2="0%" y2="50%" id="prefix-7kU-linearGradient-2"><stop stop-color="#8E65DA" offset="0%"/><stop stop-color="#9F7FE1" offset="100%"/></linearGradient><linearGradient x1="100%" y1="50%" x2="0%" y2="50%" id="prefix-7kU-linearGradient-3"><stop stop-color="#7041D0" offset="0%"/><stop stop-color="#926ADC" offset="100%"/></linearGradient><linearGradient x1="100%" y1="50%" x2="9%" y2="50%" id="prefix-7kU-linearGradient-4"><stop stop-color="#CE8CEC" offset="0%"/><stop stop-color="#D89FF0" offset="100%"/></linearGradient><linearGradient x1="34%" y1="54%" x2="86%" y2="90%" id="prefix-7kU-linearGradient-5"><stop stop-color="#B18AE6" offset="0%"/><stop stop-color="#C5A0EA" offset="100%"/></linearGradient><linearGradient x1="12%" y1="50%" x2="86%" y2="75%" id="prefix-7kU-linearGradient-6"><stop stop-color="#B289E6" offset="0%"/><stop stop-color="#954FD9" offset="100%"/></linearGradient><linearGradient x1="0%" y1="39%" x2="86%" y2="75%" id="prefix-7kU-linearGradient-7"><stop stop-color="#B389E5" offset="0%"/><stop stop-color="#8741D4" offset="100%"/></linearGradient></defs><path d="m223.263 143.741.037.026.602.722c4.247 5.07 8.35 9.327 12.312 12.773l.01-.061c2.32 1.984 4.592 3.688 6.814 5.112 5.875 3.764 14.98 8.715 27.314 14.853-19.185-.944-33.313-4.5-42.384-10.665-1.712-1.163-3.174-2.372-4.384-3.625-.65-5.892-.758-12.27-.321-19.135Z" id="prefix-7kU-形状结合" fill="url(#prefix-7kU-linearGradient-6)" fill-rule="nonzero"/></svg></svg><svg height="34" version="1.1" width="47" xmlns="http://www.w3.org/2000/svg" x="223" y="144" preserveAspectRatio="none" transform="matrix(1,0,0,1,0,0)" class="none"><desc>Created with Snap</desc><defs/><svg xmlns="http://www.w3.org/2000/svg" viewBox="223 144 47 34"><defs><linearGradient x1="100%" y1="50%" x2="0%" y2="50%" id="prefix-htg-linearGradient-1"><stop stop-color="#B4A9E9" offset="0%"/><stop stop-color="#946BDD" offset="100%"/></linearGradient><linearGradient x1="100%" y1="50%" x2="0%" y2="50%" id="prefix-htg-linearGradient-2"><stop stop-color="#8E65DA" offset="0%"/><stop stop-color="#9F7FE1" offset="100%"/></linearGradient><linearGradient x1="100%" y1="50%" x2="0%" y2="50%" id="prefix-htg-linearGradient-3"><stop stop-color="#7041D0" offset="0%"/><stop stop-color="#926ADC" offset="100%"/></linearGradient><linearGradient x1="100%" y1="50%" x2="9%" y2="50%" id="prefix-htg-linearGradient-4"><stop stop-color="#CE8CEC" offset="0%"/><stop stop-color="#D89FF0" offset="100%"/></linearGradient><linearGradient x1="34%" y1="54%" x2="86%" y2="90%" id="prefix-htg-linearGradient-5"><stop stop-color="#B18AE6" offset="0%"/><stop stop-color="#C5A0EA" offset="100%"/></linearGradient><linearGradient x1="12%" y1="50%" x2="86%" y2="75%" id="prefix-htg-linearGradient-6"><stop stop-color="#B289E6" offset="0%"/><stop stop-color="#954FD9" offset="100%"/></linearGradient><linearGradient x1="0%" y1="39%" x2="86%" y2="75%" id="prefix-htg-linearGradient-7"><stop stop-color="#B389E5" offset="0%"/><stop stop-color="#8741D4" offset="100%"/></linearGradient></defs><path d="M223.264 143.723c4.474 5.407 8.79 9.92 12.95 13.539l.01-.061c2.32 1.984 4.592 3.688 6.814 5.112 5.896 3.778 15.045 8.751 27.447 14.92-5.384-1.053-13.227-3.884-23.53-8.493-10.404-4.654-18.301-12.993-23.69-25.017Z" id="prefix-htg-形状结合" fill="url(#prefix-htg-linearGradient-7)" fill-rule="nonzero"/></svg></svg></g>
            <g id="icon_name_and_slogan_gap">
            </g>
            <g class="name_and_slogan" id="name_and_slogan_id">
              <g class="name"><g id="nameDefaultGroup"><path d="M200.6 290.3 Q199.7 289.6 198.4 288.5 Q197 287.5 195.7 286.5 Q194.3 285.5 193 284.5 Q191.6 283.5 190.7 282.8 L194.6 277.1 Q195.4 277.6 196.5 278.4 Q197.6 279.2 198.8 280.1 Q200 281 201.3 281.9 Q202.6 282.7 203.6 283.5 L203.6 279.8 L210.6 279.8 L210.6 281.3 L219.2 281.3 L217.5 277.1 L223.9 275.3 Q224.7 276.8 225.4 278.3 Q226 279.8 226.7 281.3 L235.7 281.3 Q238.9 281.3 240.2 282.8 Q241.4 284.2 241.4 286.4 L241.4 291.4 L235.6 291.4 Q235.3 295 233.4 296.5 Q231.4 298.1 227.2 298.1 L215.3 298.1 L215.3 300.7 L239.5 300.7 L239.5 306.7 L232.7 306.7 L232.7 311.6 L242 311.6 L242 318 L203.2 318 L203.2 311.6 L208.1 311.6 L208.1 291.4 L203.6 291.4 L203.6 285.8 L200.6 290.3 Z M202.5 308.2 Q202.4 308.6 201.9 310.2 Q201.4 311.8 200.7 314 Q200 316.3 199.3 318.8 Q198.5 321.3 197.8 323.5 Q197 325.7 196.6 327.3 Q196.1 328.9 196 329.2 L188.7 327.1 Q188.9 326.6 189.5 325 Q190.1 323.3 190.8 321.2 Q191.5 319 192.3 316.5 Q193.1 314 193.8 311.8 Q194.5 309.6 195 308 Q195.5 306.5 195.5 306.1 L202.5 308.2 Z M211.3 319 L217.8 319 L217.8 320.8 Q217.8 323.3 217 324.9 Q216.2 326.5 214.7 327.4 Q213.2 328.3 211.1 328.6 Q209 329 206.3 329 L203.4 329 L203.4 322.7 L206.4 322.7 Q209.1 322.7 210.1 322.3 Q211.2 321.8 211.3 320.5 L211.3 319 Z M233.2 320.5 Q233.3 321.8 234.4 322.3 Q235.4 322.7 238.1 322.7 L241.1 322.7 L241.1 329 L238.2 329 Q235.5 329 233.4 328.6 Q231.3 328.3 229.8 327.4 Q228.3 326.5 227.5 324.9 Q226.7 323.3 226.7 320.8 L226.7 319 L233.2 319 L233.2 320.5 Z M199.3 304.2 Q198.2 303.4 196.7 302.2 Q195.2 301.1 193.6 300 Q192.1 298.9 190.6 297.9 Q189.2 296.9 188.2 296.2 L192.4 290.4 Q193.4 291.1 194.9 292.1 Q196.3 293 197.8 294.1 Q199.4 295.2 200.8 296.2 Q202.3 297.2 203.5 298 L199.3 304.2 Z M210.6 287.5 L210.6 291.2 L215.3 291.2 L215.3 292.4 L226.3 292.4 Q227.8 292.4 228.4 291.8 Q228.9 291.3 228.9 290.2 L234.4 290.2 L234.4 287.5 L210.6 287.5 Z M215.3 311.6 L225.7 311.6 L225.7 306.7 L215.3 306.7 L215.3 311.6 Z M281.1 277.4 Q281.1 279.3 280.9 281 L301.1 281 L301.1 287.3 L283.9 287.3 Q288.4 288.5 292.8 289.8 Q297.2 291.2 300.5 292.4 L298.3 297.7 L304.5 297.7 L304.5 303.9 L298.4 303.9 L298.4 321.2 Q298.4 324.8 296.2 327.3 Q294.1 329.7 289.9 331.6 L285.5 325.1 Q288.2 323.9 289.5 322.6 Q290.8 321.4 290.8 319.6 L290.8 303.9 L250.8 303.9 L250.8 297.7 L294.7 297.7 Q290.4 296 285.6 294.5 Q280.9 292.9 276.6 291.8 Q274.2 294.4 270 295.6 Q265.9 296.9 259.6 296.9 L254.7 296.9 L254.7 290.6 L259.1 290.6 Q262.9 290.6 265.6 289.8 Q268.3 289 270 287.3 L254.2 287.3 L254.2 281 L273 281 Q273.1 280.1 273.2 279.3 Q273.3 278.5 273.3 277.4 L281.1 277.4 Z M277.4 323.7 L263.3 323.7 L263.3 325.3 L256.5 325.3 L256.5 305.5 L263.3 305.5 L263.3 306.9 L278.9 306.9 Q281.2 307 282.8 308.5 Q284.3 310 284.3 312.5 L284.3 325 L277.4 325 L277.4 323.7 Z M263.3 313 L263.3 317.6 L277.4 317.6 L277.4 313 L263.3 313 Z M360.8 315.2 L360.8 329.6 L353.2 329.6 L353.2 316.1 L335.7 318.1 L335.3 310.6 L353.2 308.6 L353.2 276.7 L360.8 276.7 L360.8 307.7 L366.7 307.1 L367.1 314.5 L360.8 315.2 Z M314.6 279.8 L325.8 279.8 Q327.3 279.8 327.9 279.2 Q328.4 278.5 328.4 277.1 L335.9 277.1 Q335.9 282 334.1 284.5 Q332.3 286.9 328.2 287 L328.2 291.4 L335.6 291.4 L335.6 298.7 L328.2 298.7 L328.2 329.3 L321.1 329.3 L321.1 298.7 L313.8 298.7 L313.8 291.4 L321.1 291.4 L321.1 287 L314.6 287 L314.6 279.8 Z M319.9 301.5 Q319.9 307 319.8 311.1 Q319.7 315.2 319.5 318.2 Q319.3 321.1 318.9 323 Q318.5 324.9 317.9 326 Q317.3 327.1 316.3 327.5 Q315.4 327.9 314.1 327.9 L313 327.9 L313 320.6 L313.8 320.6 Q314 320.6 314.2 320.1 Q314.4 319.6 314.6 317.7 Q314.7 315.8 314.7 311.9 Q314.8 308.1 314.8 301.5 L319.9 301.5 Z M334.4 301.5 Q334.4 308.1 334.4 311.9 Q334.5 315.8 334.6 317.7 Q334.7 319.6 334.9 320.1 Q335.1 320.6 335.4 320.6 L336.2 320.6 L336.2 327.9 L335.1 327.9 Q333.8 327.9 332.8 327.5 Q331.9 327.1 331.3 326 Q330.6 324.9 330.2 323 Q329.9 321.1 329.6 318.2 Q329.4 315.2 329.3 311.1 Q329.3 307 329.3 301.5 L334.4 301.5 Z M345.8 309 Q343.5 306.7 340.8 304.2 Q338.2 301.7 335.7 299.6 L340.8 294.2 L351 303.2 L345.8 309 Z M346.8 295.1 Q344.1 292.3 341.7 290.1 Q339.3 287.9 337.1 286 L342.1 280.6 Q344.6 282.7 347 284.9 Q349.4 287 352.2 289.5 L346.8 295.1 Z M418.3 303.8 L395.3 303.8 L395.3 296.6 L406.5 296.6 L406.5 290.6 L395.2 290.6 L395.2 283.4 L406.5 283.4 L406.5 276.5 L413.9 276.5 L413.9 283.4 L427.2 283.4 L427.2 290.6 L413.9 290.6 L413.9 296.6 L420.1 296.6 Q423 296.6 424.5 298 Q426 299.5 426 302.2 L426 307.3 Q426 311.9 425 316 Q424.1 320 421.4 323 L422.2 323 L428.7 323 L428.7 330.4 L421.6 330.4 Q414.7 330.7 409.7 329.3 Q407.5 329.8 404.8 330.1 Q402.1 330.4 399 330.4 L393.2 330.4 L393.2 323 L399 323 L399.8 323 Q397.8 320.5 396.9 317.1 Q396 313.7 396 309.7 L396 306.7 L403.6 306.7 L403.6 309.7 Q403.6 313.8 405.1 316.7 Q406.7 319.6 410.3 321.1 Q412.6 320.2 414.2 318.7 Q415.7 317.3 416.6 315.5 Q417.5 313.7 417.9 311.7 Q418.3 309.6 418.3 307.3 L418.3 303.8 Z M389.3 277 L389.3 285.6 L393.8 285.6 L393.8 293.5 L389.3 293.5 L389.3 300.4 Q390.2 300.1 391 299.8 Q391.9 299.5 392.7 299.2 L395.1 306.8 L389.3 308.8 L389.3 319 Q389.3 321 389 322.6 Q388.6 324.2 387.7 325.6 Q386.8 326.9 385.3 328.1 Q383.8 329.3 381.7 330.4 L377.2 324.1 Q379.9 322.8 380.8 321.5 Q381.7 320.1 381.7 318.1 L381.7 311.3 L376.1 313.4 L373.7 305.6 Q375.4 305.1 377.5 304.5 Q379.5 303.8 381.7 303.1 L381.7 293.5 L375.5 293.5 L375.5 285.6 L381.7 285.6 L381.7 277 L389.3 277 Z" style="" fill="#474747" transform="matrix(1,0,0,1,0,0)"/></g></g>
              <g class="slogan"><g id="sloganDefaultGroup"><path d="M243.6 344 Q243.4 344.3 243.3 344.7 Q243.1 345 243 345.3 L248.6 345.3 L248.6 346.2 Q248 347 247.4 347.5 Q246.8 348.1 246.3 348.6 Q246.9 348.8 247.4 349 Q248 349.2 248.5 349.4 L248.1 350.4 Q247.3 350 246.5 349.6 Q245.6 349.3 244.7 348.9 Q243.8 348.6 242.9 348.2 Q242.1 347.9 241.4 347.7 L241.7 346.9 Q242.5 347.1 243.4 347.5 Q244.3 347.8 245.3 348.2 Q245.6 348 245.9 347.7 Q246.2 347.4 246.4 347.2 Q246.7 346.9 247 346.7 Q247.2 346.4 247.4 346.2 L241.9 346.2 L241.9 345.4 Q242 345.1 242.2 344.7 Q242.4 344.4 242.5 344 L239.7 344 L239.7 343.1 L242.9 343.1 Q243 342.7 243.1 342.4 Q243.2 342 243.4 341.6 L240.6 341.6 L240.6 340.7 L243.6 340.7 Q243.7 340.3 243.8 340 Q243.9 339.6 244 339.2 L244.9 339.4 Q244.8 340 244.6 340.7 L249.2 340.7 L249.2 341.6 L244.4 341.6 Q244.2 342 244.1 342.4 Q244 342.7 243.9 343.1 L250.1 343.1 L250.1 344 L243.6 344 Z M264.1 348.8 L264.1 349.6 L256.1 349.6 L256.1 348.8 L259.6 348.8 L259.6 345.8 L256.9 345.8 L256.9 344.9 L259.6 344.9 L259.6 342.2 L256.7 342.2 L256.7 341.4 L259.7 341.4 Q259.7 341.1 259.6 340.9 Q259.5 340.6 259.4 340.3 Q259.4 340.1 259.3 339.9 Q259.2 339.7 259.2 339.5 L260.1 339.4 Q260.1 339.5 260.2 339.8 Q260.3 340 260.4 340.3 Q260.4 340.6 260.5 340.9 Q260.6 341.2 260.7 341.4 L263.7 341.4 L263.7 342.2 L260.5 342.2 L260.5 344.9 L263.3 344.9 L263.3 345.8 L260.5 345.8 L260.5 348.8 L264.1 348.8 Z M256.1 342.2 Q255.9 342 255.6 341.7 Q255.3 341.5 255 341.2 Q254.7 341 254.4 340.8 Q254.1 340.6 253.9 340.4 L254.4 339.7 Q254.6 339.9 254.9 340.1 Q255.2 340.3 255.5 340.5 Q255.8 340.7 256.1 340.9 Q256.4 341.2 256.6 341.3 L256.1 342.2 Z M255.6 345 Q255.4 344.8 255.1 344.6 Q254.9 344.3 254.5 344 Q254.2 343.8 253.9 343.6 Q253.6 343.4 253.4 343.3 L253.9 342.5 Q254.1 342.6 254.4 342.8 Q254.7 343 255 343.3 Q255.3 343.5 255.6 343.8 Q255.9 344 256.1 344.2 L255.6 345 Z M256.2 346.1 Q256.1 346.5 255.9 347.1 Q255.7 347.6 255.4 348.2 Q255.2 348.8 254.9 349.3 Q254.7 349.9 254.5 350.2 L253.7 349.8 Q253.9 349.5 254.1 348.9 Q254.3 348.4 254.6 347.8 Q254.8 347.3 255 346.7 Q255.2 346.2 255.3 345.8 L255.7 345.9 L256.2 346.1 Z M267.7 340.7 L268.8 340.7 L268.8 349 L267.7 349 L267.7 340.7 Z M278 341.6 L275.6 341.6 L275.6 349 L274.5 349 L274.5 341.6 L272.1 341.6 L272.1 340.7 L278 340.7 L278 341.6 Z M291.5 348.7 L291.5 349.5 L280.8 349.5 L280.8 348.7 L288.2 348.7 L288.3 346.9 L282.6 346.9 L283.6 341.1 L281.3 341.1 L281.3 340.2 L291 340.2 L291 341.1 L284.5 341.1 L284.2 342.8 L289.6 342.8 L289.1 348.7 L291.5 348.7 Z M288.4 346 L288.6 343.7 L284.1 343.7 L283.7 346 L288.4 346 Z M302.2 345.6 Q302.4 346.2 302.7 346.8 Q303 347.3 303.4 347.8 Q303.8 348.3 304.3 348.7 Q304.8 349.1 305.4 349.4 L304.8 350.1 Q303.9 349.6 303.1 348.8 Q302.3 348 301.9 347 Q301.6 347.9 300.9 348.7 Q300.2 349.4 299.1 350.1 L298.5 349.5 Q299.9 348.7 300.6 347.7 Q301.3 346.8 301.4 345.5 L298.9 345.5 L298.9 344.6 L301.4 344.6 L301.4 342.6 L299.2 342.6 L299.2 341.7 L302.2 341.7 Q302.4 341.4 302.5 341.1 Q302.7 340.8 302.9 340.5 Q303 340.2 303.2 339.9 Q303.3 339.6 303.4 339.3 L304.2 339.7 Q304.1 340 303.8 340.6 Q303.5 341.2 303.2 341.7 L304.8 341.7 L304.8 342.6 L302.3 342.6 L302.3 344.6 L305.1 344.6 L305.1 345.5 L302.3 345.5 Q302.3 345.5 302.2 345.6 Q302.2 345.6 302.2 345.6 Z M300.7 341.6 Q300.6 341.4 300.5 341.2 Q300.4 340.9 300.3 340.6 Q300.1 340.4 300 340.1 Q299.9 339.9 299.8 339.8 L300.5 339.4 Q300.6 339.5 300.7 339.8 Q300.8 340 301 340.3 Q301.1 340.6 301.3 340.8 Q301.4 341.1 301.5 341.2 L300.7 341.6 Z M299.4 348.1 Q299.3 348.1 299 348.1 Q298.8 348.2 298.5 348.2 L298.5 350.2 L297.7 350.2 L297.7 348.3 Q297.2 348.4 296.8 348.5 Q296.3 348.5 295.9 348.6 Q295.4 348.6 295.1 348.7 Q294.7 348.7 294.5 348.7 L294.4 347.8 Q294.6 347.8 294.8 347.8 Q295.1 347.8 295.3 347.8 L295.3 340.9 L294.7 340.9 L294.7 340 L299.2 340 L299.2 340.9 L298.5 340.9 L298.5 347.4 Q298.8 347.3 299 347.3 Q299.2 347.2 299.4 347.2 L299.4 348.1 Z M296.1 340.9 L296.1 342.6 L297.7 342.6 L297.7 340.9 L296.1 340.9 Z M296.1 345 L297.7 345 L297.7 343.4 L296.1 343.4 L296.1 345 Z M296.1 347.7 Q296.5 347.6 296.9 347.6 Q297.3 347.5 297.7 347.5 L297.7 345.8 L296.1 345.8 L296.1 347.7 Z M318.3 340 L318.3 348.5 Q318.3 348.9 318.2 349.2 Q318.1 349.5 317.9 349.7 Q317.7 349.9 317.4 350 Q317 350 316.5 350.1 L315.8 350.1 L315.5 349.2 L316.4 349.2 Q316.7 349.2 316.9 349.1 Q317.1 349.1 317.2 349 Q317.3 348.9 317.4 348.7 Q317.4 348.5 317.4 348.2 L317.4 340.9 L310 340.9 L310 350.1 L309.2 350.1 L309.2 340 L318.3 340 Z M313.1 347.5 Q313 347.1 312.8 346.7 Q312.6 346.2 312.4 345.8 Q312 346.5 311.6 347.2 Q311.2 348 310.8 348.6 L310.1 348.1 Q310.6 347.4 311.1 346.5 Q311.6 345.7 312 344.8 Q311.6 344.1 311.2 343.4 Q310.9 342.7 310.6 342.2 L311.2 341.9 Q311.5 342.2 311.8 342.8 Q312.1 343.3 312.4 343.9 Q312.6 343.3 312.9 342.7 Q313.1 342.1 313.3 341.5 L314 341.8 Q313.8 342.6 313.5 343.4 Q313.2 344.1 312.8 344.8 Q313.2 345.5 313.4 346 Q313.6 346.6 313.8 347 L313.1 347.5 Z M316.7 348.3 Q316.5 347.8 316.2 347.2 Q315.9 346.5 315.5 345.8 Q314.8 347.3 313.8 348.8 L313.2 348.3 Q313.7 347.5 314.2 346.6 Q314.7 345.8 315.1 344.9 Q314.7 344.3 314.4 343.7 Q314.1 343.1 313.8 342.8 L314.5 342.3 Q314.7 342.6 314.9 343 Q315.2 343.5 315.5 344 Q316 342.8 316.3 341.7 L317.1 341.9 Q316.9 342.7 316.6 343.4 Q316.3 344.2 316 344.9 Q316.4 345.7 316.7 346.5 Q317.1 347.2 317.3 347.8 L316.7 348.3 Z M332.5 350.3 Q331.5 349.9 330.6 349.4 Q329.8 348.9 329.1 348.2 Q328.5 348.8 327.6 349.3 Q326.8 349.8 325.7 350.2 L325.1 349.4 Q326.1 349.1 327 348.6 Q327.8 348.2 328.5 347.6 Q328 347 327.6 346.3 Q327.2 345.6 326.9 344.8 L327.6 344.5 Q328.2 346 329.1 347.1 Q329.8 346.4 330.2 345.8 Q330.7 345.1 330.9 344.4 L326.4 344.4 L326.4 343.5 L328.7 343.5 L328.7 341.9 L326.2 341.9 L326.2 341 L328.7 341 L328.7 339.4 L329.6 339.4 L329.6 341 L332.4 341 L332.4 341.9 L329.6 341.9 L329.6 343.5 L331.9 343.5 L331.9 344.4 Q331.6 345.1 331.1 346 Q330.6 346.8 329.8 347.7 Q331.1 348.8 333 349.5 L332.5 350.3 Z M326 345 Q325.8 345.1 325.4 345.2 Q325.1 345.3 324.7 345.5 L324.7 348.8 Q324.7 349.2 324.7 349.4 Q324.6 349.6 324.5 349.7 Q324.3 349.8 324.1 349.9 Q323.8 350 323.4 350 L322.8 350.1 L322.5 349.2 L323.3 349.1 Q323.5 349.1 323.6 349.1 Q323.7 349 323.8 349 Q323.8 348.9 323.8 348.8 Q323.9 348.6 323.9 348.4 L323.9 345.8 Q323.4 346 322.9 346.1 Q322.5 346.2 322.1 346.3 L321.9 345.5 Q322.3 345.4 322.8 345.3 Q323.3 345.1 323.9 344.9 L323.9 342.4 L322.5 342.4 L322.5 341.6 L323.9 341.6 L323.9 339.4 L324.7 339.5 L324.7 341.6 L325.9 341.6 L325.9 342.4 L324.7 342.4 L324.7 344.6 Q325 344.5 325.3 344.4 Q325.6 344.3 325.8 344.2 L326 345 Z M342 342.7 Q342.8 344.3 344 345.6 Q345.2 347 347 348.1 L346.3 349 Q345.4 348.3 344.7 347.7 Q344 347.1 343.5 346.4 Q342.9 345.8 342.5 345.2 Q342.1 344.5 341.8 343.9 L341.8 350.2 L340.9 350.2 L340.9 343.9 Q340.3 345.2 339.2 346.5 Q338.1 347.7 336.5 349 L335.8 348.2 Q336.6 347.6 337.3 347 Q338.1 346.3 338.7 345.6 Q339.3 344.9 339.8 344.2 Q340.3 343.4 340.7 342.7 L336.6 342.7 L336.6 341.8 L340.9 341.8 L340.9 339.4 L341.8 339.5 L341.8 341.8 L346.2 341.8 L346.2 342.7 L342 342.7 Z M344.5 341.7 Q344.1 341.2 343.7 340.8 Q343.3 340.3 342.9 340 L343.5 339.5 Q343.7 339.6 343.9 339.8 Q344.1 340 344.3 340.2 Q344.5 340.4 344.7 340.6 Q344.9 340.9 345.1 341.1 L344.5 341.7 Z M356.6 339.3 Q356.9 340.1 357.2 340.8 Q357.6 341.5 358.1 342 Q358.7 342.6 359.3 343.1 Q359.9 343.6 360.7 344.1 L360.2 344.9 Q359.3 344.4 358.7 343.9 Q358.1 343.4 357.6 342.8 Q357.1 342.2 356.6 341.4 Q356.2 340.6 355.8 339.6 L356.6 339.3 Z M354.5 339.8 Q354.2 340.6 353.8 341.3 Q353.4 341.9 352.9 342.5 Q352.4 343.1 351.7 343.7 Q351.1 344.2 350.3 344.8 L349.7 344.1 Q351.1 343.2 352.1 342 Q353.1 340.9 353.7 339.5 L354.5 339.8 Z M351.8 344 L358.3 344 Q358.3 344.2 358.3 344.5 Q358.3 344.9 358.2 345.3 Q358.2 345.7 358.2 346.2 Q358.2 346.6 358.1 347.1 Q358.1 347.5 358.1 347.8 Q358 348.2 358 348.4 Q358 348.8 357.9 349.1 Q357.8 349.3 357.7 349.5 Q357.5 349.6 357.2 349.7 Q357 349.8 356.6 349.8 Q356.4 349.8 356.2 349.8 Q356.1 349.9 355.9 349.9 Q355.8 349.9 355.7 349.9 L355.3 349 L356.3 348.9 Q356.5 348.9 356.7 348.9 Q356.8 348.8 356.9 348.7 Q357 348.6 357 348.5 Q357.1 348.3 357.1 348 Q357.1 347.8 357.2 347.3 Q357.2 346.9 357.2 346.4 Q357.3 345.9 357.3 345.4 Q357.3 345 357.3 344.8 L354.1 344.8 Q354.1 345 354.1 345.2 Q354.1 345.4 354.1 345.6 Q354 346.4 353.8 347 Q353.7 347.6 353.3 348.2 Q352.9 348.7 352.3 349.2 Q351.7 349.8 350.7 350.3 L350.1 349.6 Q351 349.1 351.6 348.7 Q352.1 348.2 352.5 347.8 Q352.8 347.4 352.9 346.8 Q353.1 346.3 353.2 345.6 Q353.2 345.4 353.2 345.2 Q353.2 345 353.2 344.8 L351.8 344.8 L351.8 344 Z M374 341.2 L363.9 341.2 L363.9 340.5 L368.6 340.5 Q368.5 340.2 368.4 339.9 Q368.3 339.6 368.2 339.5 L369.1 339.3 Q369.2 339.5 369.3 339.8 Q369.4 340.2 369.5 340.5 L374 340.5 L374 341.2 Z M365.4 344.2 L365.4 342 L372.6 342 L372.6 344.2 L365.4 344.2 Z M366.3 343.5 L371.7 343.5 L371.7 342.7 L366.3 342.7 L366.3 343.5 Z M374.3 347.8 L369.4 347.8 L369.4 348.7 Q369.4 349.1 369.4 349.4 Q369.3 349.6 369.2 349.7 Q369.1 349.9 368.8 349.9 Q368.6 350 368.2 350 L367.3 350.1 L367 349.3 L367.9 349.2 Q368.1 349.2 368.2 349.1 Q368.4 349.1 368.4 349 Q368.5 349 368.5 348.8 Q368.6 348.7 368.6 348.5 L368.6 347.8 L363.7 347.8 L363.7 347 L368.6 347 L368.6 346.6 L371.1 345.7 L364.8 345.7 L364.8 344.9 L372.9 344.9 L372.9 345.8 L369.4 347 L369.4 347 L374.3 347 L374.3 347.8 Z" style="" fill="#474747" transform="matrix(1,0,0,1,0,0)"/></g></g>
            </g>
            <g class="border">
            </g>
          </g>
          <defs id="defs">
            <mask xmlns="http://www.w3.org/2000/svg" id="mask">
                <rect id="showAll" fill="white" x="223" y="95" width="154" height="152"/>
                <rect id="hideNameBg" fill="black" x="0" y="0" width="0" height="0" stroke-width="2" stroke="black"/>
                <rect id="hideSloganBg" fill="black" x="0" y="0" width="0" height="0" stroke-width="2" stroke="black"/>
            </mask>
          
          </defs>
        </g>
        </svg>